<?xml version="1.0" encoding="UTF-8" standalone="no"?><svg xmlns="http://www.w3.org/2000/svg" xmlns:xlink="http://www.w3.org/1999/xlink" contentStyleType="text/css" height="1811px" preserveAspectRatio="none" style="width:600px;height:1811px;background:#FFFFFF;" version="1.1" viewBox="0 0 600 1811" width="600px" zoomAndPan="magnify"><defs/><g><!--MD5=[80714ef8a8f996994cf0ffa70ea9f84c]
cluster ul--><g id="cluster_ul"><path d="M8.5,842 L130.5,842 A3.75,3.75 0 0 1 133,844.5 L140,864.2969 L153.5,864.2969 A2.5,2.5 0 0 1 156,866.7969 L156,1223.5 A2.5,2.5 0 0 1 153.5,1226 L8.5,1226 A2.5,2.5 0 0 1 6,1223.5 L6,844.5 A2.5,2.5 0 0 1 8.5,842 " style="stroke:#000000;stroke-width:1.5;fill:none;"/><line style="stroke:#000000;stroke-width:1.5;fill:none;" x1="6" x2="140" y1="864.2969" y2="864.2969"/><text fill="#000000" font-family="sans-serif" font-size="14" font-weight="bold" lengthAdjust="spacing" textLength="121" x="10" y="856.9951">UsuárioLogado</text></g><!--MD5=[cdb2d8efc02e1eaeca1a3a2854cfa898]
cluster AppDivisãoDeEstágio--><g id="cluster_AppDivisãoDeEstágio"><path d="M190.5,6 L362.5,6 A3.75,3.75 0 0 1 365,8.5 L372,28.2969 L488.5,28.2969 A2.5,2.5 0 0 1 491,30.7969 L491,1801.5 A2.5,2.5 0 0 1 488.5,1804 L190.5,1804 A2.5,2.5 0 0 1 188,1801.5 L188,8.5 A2.5,2.5 0 0 1 190.5,6 " style="stroke:#000000;stroke-width:1.5;fill:none;"/><line style="stroke:#000000;stroke-width:1.5;fill:none;" x1="188" x2="372" y1="28.2969" y2="28.2969"/><text fill="#000000" font-family="sans-serif" font-size="14" font-weight="bold" lengthAdjust="spacing" textLength="171" x="192" y="20.9951">AppDivisãoDeEstágio</text></g><!--MD5=[be5750da26e06623bc49653cefaf97c7]
entity p--><g id="elem_p"><ellipse cx="81" cy="893.5" fill="#F1F1F1" rx="8" ry="8" style="stroke:#181818;stroke-width:0.5;"/><path d="M81,901.5 L81,928.5 M68,909.5 L94,909.5 M81,928.5 L68,943.5 M81,928.5 L94,943.5 " fill="none" style="stroke:#181818;stroke-width:0.5;"/><text fill="#000000" font-family="sans-serif" font-size="14" lengthAdjust="spacing" textLength="68" x="47" y="957.9951">Professor</text></g><!--MD5=[9877f6724d1a276f2a95363da75a191d]
entity adm--><g id="elem_adm"><ellipse cx="81" cy="1004.5" fill="#F1F1F1" rx="8" ry="8" style="stroke:#181818;stroke-width:0.5;"/><path d="M81,1012.5 L81,1039.5 M68,1020.5 L94,1020.5 M81,1039.5 L68,1054.5 M81,1039.5 L94,1054.5 " fill="none" style="stroke:#181818;stroke-width:0.5;"/><text fill="#000000" font-family="sans-serif" font-size="14" lengthAdjust="spacing" textLength="102" x="30" y="1068.9951">Administrador</text></g><!--MD5=[5d9c7ad096abb1f9498e71bc4f4541e5]
entity al--><g id="elem_al"><ellipse cx="81" cy="1115.5" fill="#F1F1F1" rx="8" ry="8" style="stroke:#181818;stroke-width:0.5;"/><path d="M81,1123.5 L81,1150.5 M68,1131.5 L94,1131.5 M81,1150.5 L68,1165.5 M81,1150.5 L94,1165.5 " fill="none" style="stroke:#181818;stroke-width:0.5;"/><text fill="#000000" font-family="sans-serif" font-size="14" lengthAdjust="spacing" textLength="40" x="61" y="1179.9951">Aluno</text></g><g id="elem_UC1"><ellipse cx="339.5664" cy="1772.7722" fill="#F1F1F1" rx="60.0664" ry="14.7722" style="stroke:#181818;stroke-width:0.5;"/><text fill="#000000" font-family="sans-serif" font-size="14" lengthAdjust="spacing" textLength="67" x="303.0664" y="1776.5198">Ver Perfil</text></g><g id="elem_UC3"><ellipse cx="339.5751" cy="1469.215" fill="#F1F1F1" rx="104.0751" ry="23.215" style="stroke:#181818;stroke-width:0.5;"/><text fill="#000000" font-family="sans-serif" font-size="14" lengthAdjust="spacing" textLength="173" x="253.0751" y="1472.0617">Ver Modelo de Relatório</text></g><g id="elem_UC4"><ellipse cx="339.4811" cy="1552.0962" fill="#F1F1F1" rx="110.9811" ry="24.5962" style="stroke:#181818;stroke-width:0.5;"/><text fill="#000000" font-family="sans-serif" font-size="14" lengthAdjust="spacing" textLength="188" x="245.4811" y="1554.9429">Iniciar cadastro de estágio</text></g><g id="elem_UC5"><ellipse cx="339.7229" cy="1633.0446" fill="#F1F1F1" rx="93.2229" ry="21.0446" style="stroke:#181818;stroke-width:0.5;"/><text fill="#000000" font-family="sans-serif" font-size="14" lengthAdjust="spacing" textLength="149" x="265.2229" y="1635.8913">Casdrastrar empresa</text></g><g id="elem_UC6"><ellipse cx="339.6147" cy="1186.1229" fill="#F1F1F1" rx="98.6147" ry="22.1229" style="stroke:#181818;stroke-width:0.5;"/><text fill="#000000" font-family="sans-serif" font-size="14" lengthAdjust="spacing" textLength="161" x="259.1147" y="1188.9696">Ver Perfil de Professor</text></g><g id="elem_UC7"><ellipse cx="339.4233" cy="619.9847" fill="#F1F1F1" rx="135.4233" ry="29.4847" style="stroke:#181818;stroke-width:0.5;"/><text fill="#000000" font-family="sans-serif" font-size="14" lengthAdjust="spacing" textLength="240" x="219.4233" y="622.8313">Acompanhar entrega de relatório</text></g><g id="elem_UC8"><ellipse cx="339.3735" cy="280.7747" fill="#F1F1F1" rx="79.3735" ry="18.2747" style="stroke:#181818;stroke-width:0.5;"/><text fill="#000000" font-family="sans-serif" font-size="14" lengthAdjust="spacing" textLength="117" x="278.9676" y="284.2248">Assinar relatório</text></g><g id="elem_UC9"><ellipse cx="339.3631" cy="712.8726" fill="#F1F1F1" rx="127.3631" ry="27.8726" style="stroke:#181818;stroke-width:0.5;"/><text fill="#000000" font-family="sans-serif" font-size="14" lengthAdjust="spacing" textLength="223" x="227.8631" y="715.7193">Aprovar castrastro de empresa</text></g><g id="elem_UC11"><ellipse cx="339.4652" cy="1328.193" fill="#F1F1F1" rx="78.9652" ry="18.193" style="stroke:#181818;stroke-width:0.5;"/><text fill="#000000" font-family="sans-serif" font-size="14" lengthAdjust="spacing" textLength="116" x="279.4" y="1331.6886">Registrar duvida</text></g><g id="elem_UC12"><ellipse cx="339.495" cy="795.199" fill="#F1F1F1" rx="83.995" ry="19.199" style="stroke:#181818;stroke-width:0.5;"/><text fill="#000000" font-family="sans-serif" font-size="14" lengthAdjust="spacing" textLength="128" x="275.2335" y="798.1356">Responder dúvida</text></g><g id="elem_UC13"><ellipse cx="339.5326" cy="445.8065" fill="#F1F1F1" rx="124.5326" ry="27.3065" style="stroke:#181818;stroke-width:0.5;"/><text fill="#000000" font-family="sans-serif" font-size="14" lengthAdjust="spacing" textLength="217" x="231.0326" y="448.6532">Assinar aprovação de relatório</text></g><g id="elem_UC14"><ellipse cx="339.6728" cy="957.8346" fill="#F1F1F1" rx="89.6728" ry="20.3346" style="stroke:#181818;stroke-width:0.5;"/><text fill="#000000" font-family="sans-serif" font-size="14" lengthAdjust="spacing" textLength="141" x="269.1728" y="960.6812">Cadastrar Professor</text></g><g id="elem_UC15"><ellipse cx="339.6678" cy="1258.8336" fill="#F1F1F1" rx="67.1678" ry="15.8336" style="stroke:#181818;stroke-width:0.5;"/><text fill="#000000" font-family="sans-serif" font-size="14" lengthAdjust="spacing" textLength="85" x="294.1678" y="1262.5811">Editar Perfil</text></g><g id="elem_UC16"><ellipse cx="339.2932" cy="1108.9586" fill="#F1F1F1" rx="85.2932" ry="19.4586" style="stroke:#181818;stroke-width:0.5;"/><text fill="#000000" font-family="sans-serif" font-size="14" lengthAdjust="spacing" textLength="131" x="273.7932" y="1111.8053">Coletar Assinatura</text></g><g id="elem_UC17"><ellipse cx="339.613" cy="128.1226" fill="#F1F1F1" rx="66.113" ry="15.6226" style="stroke:#181818;stroke-width:0.5;"/><text fill="#000000" font-family="sans-serif" font-size="14" lengthAdjust="spacing" textLength="82" x="295.613" y="131.8702">Fazer Login</text></g><g id="elem_UC18"><ellipse cx="339.2532" cy="58.9506" fill="#F1F1F1" rx="77.7532" ry="17.9506" style="stroke:#181818;stroke-width:0.5;"/><text fill="#000000" font-family="sans-serif" font-size="14" lengthAdjust="spacing" textLength="113" x="280.1994" y="62.5809">Cadastrar Aluno</text></g><g id="elem_UC19"><ellipse cx="339.7105" cy="876.2421" fill="#F1F1F1" rx="121.7105" ry="26.7421" style="stroke:#181818;stroke-width:0.5;"/><text fill="#000000" font-family="sans-serif" font-size="14" lengthAdjust="spacing" textLength="211" x="234.2105" y="879.0888">Ver Solicitações de Empresas</text></g><g id="elem_UC20"><ellipse cx="339.4811" cy="359.0962" fill="#F1F1F1" rx="110.9811" ry="24.5962" style="stroke:#181818;stroke-width:0.5;"/><text fill="#000000" font-family="sans-serif" font-size="14" lengthAdjust="spacing" textLength="188" x="245.4811" y="361.9429">Ver Solicitações de Alunos</text></g><g id="elem_UC21"><ellipse cx="339.5751" cy="532.215" fill="#F1F1F1" rx="104.0751" ry="23.215" style="stroke:#181818;stroke-width:0.5;"/><text fill="#000000" font-family="sans-serif" font-size="14" lengthAdjust="spacing" textLength="173" x="253.0751" y="535.0617">Ver Lista de Professores</text></g><g id="elem_UC22"><ellipse cx="339.4744" cy="1033.8949" fill="#F1F1F1" rx="87.4744" ry="19.8949" style="stroke:#181818;stroke-width:0.5;"/><text fill="#000000" font-family="sans-serif" font-size="14" lengthAdjust="spacing" textLength="136" x="271.4744" y="1036.7416">Ver Lista de Alunos</text></g><g id="elem_UC23"><ellipse cx="339.4811" cy="203.0962" fill="#F1F1F1" rx="110.9811" ry="24.5962" style="stroke:#181818;stroke-width:0.5;"/><text fill="#000000" font-family="sans-serif" font-size="14" lengthAdjust="spacing" textLength="188" x="245.4811" y="205.9429">Ver Solicitações de Alunos</text></g><g id="elem_UC24"><ellipse cx="339.5634" cy="1705.9127" fill="#F1F1F1" rx="70.0634" ry="16.4127" style="stroke:#181818;stroke-width:0.5;"/><text fill="#000000" font-family="sans-serif" font-size="14" lengthAdjust="spacing" textLength="93" x="290.0634" y="1709.6602">Fazer Logout</text></g><g id="elem_UC25"><ellipse cx="339.5868" cy="1395.8174" fill="#F1F1F1" rx="62.0868" ry="14.8174" style="stroke:#181818;stroke-width:0.5;"/><text fill="#000000" font-family="sans-serif" font-size="14" lengthAdjust="spacing" textLength="70" x="301.5868" y="1399.5649">Ver Notas</text></g><!--MD5=[aff7a386040c94dc9e87b48fe02256dd]
entity uv--><g id="elem_uv"><ellipse cx="81" cy="64.5" fill="#F1F1F1" rx="8" ry="8" style="stroke:#181818;stroke-width:0.5;"/><path d="M81,72.5 L81,99.5 M68,80.5 L94,80.5 M81,99.5 L68,114.5 M81,99.5 L94,114.5 " fill="none" style="stroke:#181818;stroke-width:0.5;"/><text fill="#000000" font-family="sans-serif" font-size="14" lengthAdjust="spacing" textLength="116" x="23" y="128.9951">UsuárioVisitante</text></g><!--MD5=[ef2f3d6815c792d082a7c132eb1ade2f]
entity sys--><g id="elem_sys"><ellipse cx="564" cy="1079.5" fill="#F1F1F1" rx="8" ry="8" style="stroke:#181818;stroke-width:0.5;"/><path d="M564,1087.5 L564,1114.5 M551,1095.5 L577,1095.5 M564,1114.5 L551,1129.5 M564,1114.5 L577,1129.5 " fill="none" style="stroke:#181818;stroke-width:0.5;"/><text fill="#000000" font-family="sans-serif" font-size="14" lengthAdjust="spacing" textLength="58" x="535" y="1143.9951">Sistema</text></g><!--MD5=[f66e7f183c4569ca00c20c53aeacc82e]
reverse link UC16 to sys--><g id="link_UC16_sys"><path d="M430.279,1109 C467.758,1109 508.618,1109 534.958,1109 " fill="none" id="UC16-backto-sys" style="stroke:#181818;stroke-width:1.0;"/><polygon fill="#181818" points="425.252,1109,434.252,1113,430.252,1109,434.252,1105,425.252,1109" style="stroke:#181818;stroke-width:1.0;"/></g><!--MD5=[451f7b4162947771fd04d4b27ac4d9a0]
link adm to UC6--><g id="link_adm_UC6"><path d="M132.219,1054.376 C147.286,1062.895 162.354,1074.304 172,1089 C186.037,1110.386 162.912,1126.963 180,1146 C195.246,1162.984 216.554,1173.244 238.611,1179.33 " fill="none" id="adm-to-UC6" style="stroke:#181818;stroke-width:1.0;"/><polygon fill="#181818" points="243.626,1180.64,235.93,1174.4941,238.7885,1179.3756,233.907,1182.2341,243.626,1180.64" style="stroke:#181818;stroke-width:1.0;"/></g><!--MD5=[305efd27fda4366d01aab9a14183ca2e]
link adm to UC9--><g id="link_adm_UC9"><path d="M132.196,1014.167 C147.648,1005.467 162.957,993.603 172,978 C184.266,956.837 164.901,777.24 180,758 C190.641,744.44 205.056,734.77 220.878,727.91 " fill="none" id="adm-to-UC9" style="stroke:#181818;stroke-width:1.0;"/><polygon fill="#181818" points="225.831,725.87,215.986,725.5951,221.207,727.7724,219.0298,732.9935,225.831,725.87" style="stroke:#181818;stroke-width:1.0;"/></g><!--MD5=[4ee938cc57162c8d201b01a17c10995f]
link adm to UC12--><g id="link_adm_UC12"><path d="M132.033,1014.072 C147.471,1005.364 162.813,993.52 172,978 C188.551,950.038 159.115,856.892 180,832 C197.283,811.4 223.617,801 249.885,796.07 " fill="none" id="adm-to-UC12" style="stroke:#181818;stroke-width:1.0;"/><polygon fill="#181818" points="255.135,795.15,245.5814,792.7566,250.2094,796.0095,246.9565,800.6375,255.135,795.15" style="stroke:#181818;stroke-width:1.0;"/></g><!--MD5=[ecd2b408d1f758b111c4a568090cb321]
link adm to UC13--><g id="link_adm_UC13"><path d="M132.374,1014.27 C147.84,1005.577 163.112,993.693 172,978 C185.335,954.455 163.51,512.45 180,491 C190.915,476.8 205.972,466.85 222.492,459.93 " fill="none" id="adm-to-UC13" style="stroke:#181818;stroke-width:1.0;"/><polygon fill="#181818" points="227.188,458.06,217.3464,457.6808,222.5441,459.9133,220.3117,465.111,227.188,458.06" style="stroke:#181818;stroke-width:1.0;"/></g><!--MD5=[b4cdefa56c0066d4b2abda10026d6614]
link adm to UC14--><g id="link_adm_UC14"><path d="M132.152,1013.06 C147.37,1007.112 164.236,1000.921 180,996 C208.226,987.188 239.818,979.239 267.325,972.916 " fill="none" id="adm-to-UC14" style="stroke:#181818;stroke-width:1.0;"/><polygon fill="#181818" points="272.412,971.754,262.7469,969.8603,267.5377,972.8683,264.5298,977.6591,272.412,971.754" style="stroke:#181818;stroke-width:1.0;"/></g><!--MD5=[d034b9127960f9cabca33d790492fff6]
link adm to UC15--><g id="link_adm_UC15"><path d="M132.454,1069.742 C147.729,1079.182 162.863,1090.768 172,1106 C187.687,1132.152 160.077,1219.911 180,1243 C210.978,1278.9 269.96,1281.815 306.584,1274.764 " fill="none" id="adm-to-UC15" style="stroke:#181818;stroke-width:1.0;"/><polygon fill="#181818" points="311.819,1273.654,302.185,1271.6078,306.9277,1274.6911,303.8444,1279.4338,311.819,1273.654" style="stroke:#181818;stroke-width:1.0;"/></g><!--MD5=[d034b9127960f9cabca33d790492fff6]
link adm to UC15--><g id="link_adm_UC15"><path d="M132.454,1036.646 C147.729,1044.182 162.863,1055.768 172,1071 C187.687,1097.152 160.077,1184.911 180,1208 C205.202,1237.207 248.94,1244.582 284.094,1247.913 " fill="none" id="adm-to-UC15-1" style="stroke:#181818;stroke-width:1.0;"/><polygon fill="#181818" points="289.215,1248.377,280.6129,1243.5808,284.2354,1247.9256,279.8906,1251.5482,289.215,1248.377" style="stroke:#181818;stroke-width:1.0;"/></g><!--MD5=[ea83b4bb3feac22347a8cfd1f7517f36]
link adm to UC19--><g id="link_adm_UC19"><path d="M132.253,1013.086 C147.322,1004.4 162.383,992.82 172,978 C186.165,956.172 162.87,939.588 180,920 C192.2,906.048 208.401,896.343 225.79,889.627 " fill="none" id="adm-to-UC19" style="stroke:#181818;stroke-width:1.0;"/><polygon fill="#181818" points="230.724,887.811,220.8962,887.1666,226.0319,889.5384,223.6601,894.674,230.724,887.811" style="stroke:#181818;stroke-width:1.0;"/></g><!--MD5=[6d5eaf140d7504e45645c5ea264c7502]
link adm to UC21--><g id="link_adm_UC21"><path d="M132.344,1014.253 C147.808,1005.559 163.086,993.678 172,978 C183.123,958.437 166.048,590.66 180,573 C193.377,556.07 212.759,545.58 233.407,539.19 " fill="none" id="adm-to-UC21" style="stroke:#181818;stroke-width:1.0;"/><polygon fill="#181818" points="238.395,537.73,228.6339,536.418,233.5962,539.1339,230.8802,544.0962,238.395,537.73" style="stroke:#181818;stroke-width:1.0;"/></g><!--MD5=[b322499c3526a80df955cb8c73ff2437]
link adm to UC22--><g id="link_adm_UC22"><path d="M132.065,1034 C164.645,1034 208.11,1034 246.753,1034 " fill="none" id="adm-to-UC22" style="stroke:#181818;stroke-width:1.0;"/><polygon fill="#181818" points="251.927,1034,242.927,1030,246.927,1034,242.927,1038,251.927,1034" style="stroke:#181818;stroke-width:1.0;"/></g><!--MD5=[7d925fd1b29bb43edd295ccebb14689a]
link p to UC7--><g id="link_p_UC7"><path d="M86.094,884.559 C94.095,828.682 116.957,725.35 180,667 C192.997,654.97 208.935,646.01 225.643,639.34 " fill="none" id="p-to-UC7" style="stroke:#181818;stroke-width:1.0;"/><polygon fill="#181818" points="230.374,637.52,220.5379,637.0182,225.7074,639.3153,223.4104,644.4848,230.374,637.52" style="stroke:#181818;stroke-width:1.0;"/></g><!--MD5=[1120fa405fef2b6343c972323bdb0972]
link p to UC8--><g id="link_p_UC8"><path d="M82.779,884.877 C86.02,765.17 102.218,399.84 180,317 C199.183,296.57 227.338,286.57 254.616,281.99 " fill="none" id="p-to-UC8" style="stroke:#181818;stroke-width:1.0;"/><polygon fill="#181818" points="259.697,281.19,250.1878,278.6257,254.7568,281.961,251.4215,286.53,259.697,281.19" style="stroke:#181818;stroke-width:1.0;"/></g><!--MD5=[dfd67bd05d7b4ca125ac3a3e3c1e7fbb]
link p to UC13--><g id="link_p_UC13"><path d="M85.698,884.861 C95.625,790.22 125.839,548.14 180,491 C192.591,477.72 208.789,468.26 226.005,461.55 " fill="none" id="p-to-UC13" style="stroke:#181818;stroke-width:1.0;"/><polygon fill="#181818" points="230.886,459.73,221.0555,459.129,226.2015,461.4781,223.8525,466.6241,230.886,459.73" style="stroke:#181818;stroke-width:1.0;"/></g><!--MD5=[72871d6d281188a160e9d2bdc986de28]
link p to UC20--><g id="link_p_UC20"><path d="M83.995,884.98 C90.428,777.02 114.177,471.84 180,401 C193.754,386.2 212.067,376.37 231.354,369.91 " fill="none" id="p-to-UC20" style="stroke:#181818;stroke-width:1.0;"/><polygon fill="#181818" points="236.276,368.33,226.4853,367.2617,231.5136,369.8531,228.9222,374.8815,236.276,368.33" style="stroke:#181818;stroke-width:1.0;"/></g><!--MD5=[0bfbcb1ec6d96ce1ffeeb499df1a2a05]
link p to UC23--><g id="link_p_UC23"><path d="M82.182,884.647 C83.586,755.72 94.765,340.69 180,245 C193.44,229.91 211.613,219.96 230.861,213.46 " fill="none" id="p-to-UC23" style="stroke:#181818;stroke-width:1.0;"/><polygon fill="#181818" points="235.776,211.88,225.9844,210.8191,231.0148,213.4067,228.4272,218.4371,235.776,211.88" style="stroke:#181818;stroke-width:1.0;"/></g><!--MD5=[f796c0416a013d1dce112428b833e8ca]
link al to UC3--><g id="link_al_UC3"><path d="M101.317,1147.987 C122.668,1152.419 156.133,1162.971 172,1187 C186.825,1209.451 163.118,1408.052 180,1429 C193.436,1445.673 212.721,1455.992 233.239,1462.255 " fill="none" id="al-to-UC3" style="stroke:#181818;stroke-width:1.0;"/><polygon fill="#181818" points="238.195,1463.684,230.6566,1457.3459,233.391,1462.2979,228.4389,1465.0323,238.195,1463.684" style="stroke:#181818;stroke-width:1.0;"/></g><!--MD5=[224457c973ff3633fe081e06433464de]
link al to UC4--><g id="link_al_UC4"><path d="M101.353,1147.963 C122.737,1152.374 156.232,1162.905 172,1187 C191.658,1217.039 157.756,1481.822 180,1510 C192.44,1525.758 210.054,1536.021 229.048,1542.621 " fill="none" id="al-to-UC4" style="stroke:#181818;stroke-width:1.0;"/><polygon fill="#181818" points="233.905,1544.221,226.6084,1537.6059,229.156,1542.6566,224.1053,1545.2042,233.905,1544.221" style="stroke:#181818;stroke-width:1.0;"/></g><!--MD5=[f32056e555c087e12b4c47c99e2c4ea4]
link al to UC5--><g id="link_al_UC5"><path d="M101.375,1147.948 C122.78,1152.346 156.294,1162.865 172,1187 C184.335,1205.955 165.875,1576.338 180,1594 C195.202,1613.008 218.045,1623.652 241.691,1629.404 " fill="none" id="al-to-UC5" style="stroke:#181818;stroke-width:1.0;"/><polygon fill="#181818" points="246.746,1630.558,238.8621,1624.6551,241.8714,1629.4451,237.0814,1632.4544,246.746,1630.558" style="stroke:#181818;stroke-width:1.0;"/></g><!--MD5=[23715cfe63ee4461b301fb0244761630]
link al to UC6--><g id="link_al_UC6"><path d="M101.279,1148.082 C133.333,1153.205 199.436,1163.771 253.739,1172.451 " fill="none" id="al-to-UC6" style="stroke:#181818;stroke-width:1.0;"/><polygon fill="#181818" points="258.956,1173.285,250.7011,1167.9132,254.0188,1172.495,249.437,1175.8127,258.956,1173.285" style="stroke:#181818;stroke-width:1.0;"/></g><!--MD5=[9d77e50690d1adc879cb5a4a8df3b49a]
link al to UC7--><g id="link_al_UC7"><path d="M101.18,1139.227 C122.742,1131.599 156.73,1115.883 172,1089 C183.581,1068.611 165.795,685.66 180,667 C190.006,653.86 203.522,644.25 218.465,637.25 " fill="none" id="al-to-UC7" style="stroke:#181818;stroke-width:1.0;"/><polygon fill="#181818" points="223.146,635.16,213.2971,635.1723,218.5795,637.1964,216.5554,642.4787,223.146,635.16" style="stroke:#181818;stroke-width:1.0;"/></g><!--MD5=[5c4b8a02cdd8d1614e5863ff47f63ff0]
link al to UC11--><g id="link_al_UC11"><path d="M101.134,1148.11 C122.317,1152.656 155.628,1163.312 172,1187 C185.431,1206.433 164.523,1275.153 180,1293 C198.684,1314.546 227.366,1324.526 255.221,1328.718 " fill="none" id="al-to-UC11" style="stroke:#181818;stroke-width:1.0;"/><polygon fill="#181818" points="260.41,1329.435,252.0421,1324.2409,255.457,1328.7507,250.9472,1332.1656,260.41,1329.435" style="stroke:#181818;stroke-width:1.0;"/></g><!--MD5=[14ab7541fed5687fddc746e94b3fc696]
link al to UC25--><g id="link_al_UC25"><path d="M101.264,1148.022 C122.567,1152.486 155.987,1163.068 172,1187 C182.948,1203.362 167.192,1349.049 180,1364 C202.971,1390.813 241.628,1399.004 275.014,1400.398 " fill="none" id="al-to-UC25" style="stroke:#181818;stroke-width:1.0;"/><polygon fill="#181818" points="280.324,1400.566,271.4542,1396.2851,275.3265,1400.4088,271.2027,1404.2811,280.324,1400.566" style="stroke:#181818;stroke-width:1.0;"/></g><!--MD5=[0e76ed6b94424bedae5863dbffce69f9]
link uv to UC17--><g id="link_uv_UC17"><path d="M139.244,101.59 C179.964,106.99 234.63,114.23 276.402,119.77 " fill="none" id="uv-to-UC17" style="stroke:#181818;stroke-width:1.0;"/><polygon fill="#181818" points="281.431,120.44,273.0347,115.292,276.4744,119.7829,271.9834,123.2226,281.431,120.44" style="stroke:#181818;stroke-width:1.0;"/></g><!--MD5=[89868b7e1c45a51905060ae0ea238962]
link uv to UC18--><g id="link_uv_UC18"><path d="M139.244,86.19 C176.831,81.06 226.3,74.31 266.544,68.82 " fill="none" id="uv-to-UC18" style="stroke:#181818;stroke-width:1.0;"/><polygon fill="#181818" points="271.906,68.09,262.4482,65.3422,266.9518,68.7653,263.5287,73.2689,271.906,68.09" style="stroke:#181818;stroke-width:1.0;"/></g><!--MD5=[b07a09764bfaac845fc5fbce44887562]
link ul to UC1--><g id="link_ul_UC1"><path d="M82.334,1226.2847 C82.345,1226.5407 82.3564,1226.8024 82.368,1227.0695 C82.4145,1228.1383 82.4658,1229.296 82.522,1230.5398 C82.6344,1233.0273 82.7667,1235.859 82.9203,1239.0112 C83.5347,1251.62 84.4907,1269.3573 85.8874,1290.714 C88.6808,1333.4272 93.2367,1390.6176 100.3471,1450.2104 C114.568,1569.396 139.007,1698.1915 180,1740 C204.47,1764.9562 242.564,1773.4542 275.273,1775.5945 " fill="none" id="ul-to-UC1" style="stroke:#181818;stroke-width:1.0;"/><polygon fill="#181818" points="280.474,1775.885,271.7108,1771.3898,275.4818,1775.6064,271.2651,1779.3773,280.474,1775.885" style="stroke:#181818;stroke-width:1.0;"/></g><!--MD5=[34c2e262407f91d9670447d54f8b981f]
link ul to UC15--><g id="link_ul_UC15"><path d="M132.7225,1226.1074 C132.9989,1226.1516 133.2761,1226.1959 133.5541,1226.2403 C134.11,1226.3292 134.669,1226.4185 135.231,1226.5084 C136.3549,1226.688 137.4906,1226.8696 138.6376,1227.0529 C143.2256,1227.7863 147.9935,1228.5484 152.9026,1229.3331 C192.1755,1235.6107 240.4835,1243.3325 277.969,1249.324 " fill="none" id="ul-to-UC15" style="stroke:#181818;stroke-width:1.0;"/><polygon fill="#181818" points="283.29,1250.175,275.0351,1244.8032,278.3528,1249.385,273.771,1252.7027,283.29,1250.175" style="stroke:#181818;stroke-width:1.0;"/></g><!--MD5=[b51dad57e6a10994c47976b73e5f04c0]
link ul to UC24--><g id="link_ul_UC24"><path d="M82.6128,1226.607 C82.6307,1226.8492 82.6491,1227.0962 82.6679,1227.348 C82.7055,1227.8516 82.7447,1228.3743 82.7856,1228.9156 C82.949,1231.081 83.1386,1233.546 83.3552,1236.2899 C84.2215,1247.2657 85.5187,1262.7054 87.2909,1281.2941 C90.8352,1318.4716 96.2794,1368.2454 103.9759,1420.0974 C119.3688,1523.8013 143.7705,1635.8175 180,1672 C202.024,1693.996 234.603,1703.332 264.505,1706.842 " fill="none" id="ul-to-UC24" style="stroke:#181818;stroke-width:1.0;"/><polygon fill="#181818" points="269.665,1707.394,261.1411,1702.46,264.6933,1706.8625,260.2908,1710.4147,269.665,1707.394" style="stroke:#181818;stroke-width:1.0;"/></g><!--MD5=[00ef0487799048e94bfcaef6dc78c12c]
@startuml
left to right direction
actor UsuárioVisitante as uv
actor Sistema as sys
package UsuárioLogado as ul{
  actor Professor as p
  actor Administrador as adm
  actor Aluno as al
}
package AppDivisãoDeEstágio {
  usecase "Ver Perfil" as UC1

  usecase "Ver Modelo de Relatório" as UC3
  usecase "Iniciar cadastro de estágio" as UC4
  usecase "Casdrastrar empresa" as UC5
  usecase "Ver Perfil de Professor" as UC6
  usecase "Acompanhar entrega de relatório" as UC7
  usecase "Assinar relatório" as UC8
  usecase "Aprovar castrastro de empresa" as UC9

  usecase "Registrar duvida" as UC11
  usecase "Responder dúvida" as UC12
  usecase "Assinar aprovação de relatório" as UC13
  usecase "Cadastrar Professor" as UC14
  usecase "Editar Perfil" as UC15
  usecase "Coletar Assinatura" as UC16
  usecase "Fazer Login" as UC17
  usecase "Cadastrar Aluno" as UC18
  usecase "Ver Solicitações de Empresas" as UC19
  usecase "Ver Solicitações de Alunos" as UC20
  usecase "Ver Lista de Professores" as UC21
  usecase "Ver Lista de Alunos" as UC22
  usecase "Ver Solicitações de Alunos" as UC23
  usecase "Fazer Logout" as UC24
  usecase "Ver Notas" as UC25
}

UC16 <- - sys


adm - -> UC6
adm - -> UC9

adm - -> UC12
adm - -> UC13
adm - -> UC14
adm - -> UC15
adm - -> UC15
adm - -> UC19
adm - -> UC21
adm - -> UC22


p - -> UC7
p - -> UC8
p - -> UC13
p - -> UC20
p - -> UC23

al - -> UC3
al - -> UC4
al - -> UC5
al - -> UC6
al - -> UC7

al - -> UC11
al - -> UC25

uv - -> UC17
uv - -> UC18

ul - -> UC1
ul - -> UC15
ul - -> UC24
@enduml

PlantUML version 1.2022.6beta5(Unknown compile time)
(GPL source distribution)
Java Runtime: Java(TM) SE Runtime Environment
JVM: Java HotSpot(TM) 64-Bit Server VM
Default Encoding: UTF-8
Language: en
Country: US
--></g></svg>