<?xml version="1.0" encoding="UTF-8" standalone="no"?><svg xmlns="http://www.w3.org/2000/svg" xmlns:xlink="http://www.w3.org/1999/xlink" contentStyleType="text/css" height="1459px" preserveAspectRatio="none" style="width:500px;height:1459px;background:#FFFFFF;" version="1.1" viewBox="0 0 500 1459" width="500px" zoomAndPan="magnify"><defs/><g><!--MD5=[fb1b454ac1984f657a61539df0e47555]
cluster Professional--><g id="cluster_Professional"><path d="M8.5,831 L110.5,831 A3.75,3.75 0 0 1 113,833.5 L120,853.2969 L159.5,853.2969 A2.5,2.5 0 0 1 162,855.7969 L162,1177.5 A2.5,2.5 0 0 1 159.5,1180 L8.5,1180 A2.5,2.5 0 0 1 6,1177.5 L6,833.5 A2.5,2.5 0 0 1 8.5,831 " style="stroke:#000000;stroke-width:1.5;fill:none;"/><line style="stroke:#000000;stroke-width:1.5;fill:none;" x1="6" x2="120" y1="853.2969" y2="853.2969"/><text fill="#000000" font-family="sans-serif" font-size="14" font-weight="bold" lengthAdjust="spacing" textLength="101" x="10" y="845.9951">Professional</text></g><!--MD5=[cdb2d8efc02e1eaeca1a3a2854cfa898]
cluster AppDivisãoDeEstágio--><g id="cluster_AppDivisãoDeEstágio"><path d="M192.5,6 L364.5,6 A3.75,3.75 0 0 1 367,8.5 L374,28.2969 L490.5,28.2969 A2.5,2.5 0 0 1 493,30.7969 L493,1449.5 A2.5,2.5 0 0 1 490.5,1452 L192.5,1452 A2.5,2.5 0 0 1 190,1449.5 L190,8.5 A2.5,2.5 0 0 1 192.5,6 " style="stroke:#000000;stroke-width:1.5;fill:none;"/><line style="stroke:#000000;stroke-width:1.5;fill:none;" x1="190" x2="374" y1="28.2969" y2="28.2969"/><text fill="#000000" font-family="sans-serif" font-size="14" font-weight="bold" lengthAdjust="spacing" textLength="171" x="194" y="20.9951">AppDivisãoDeEstágio</text></g><!--MD5=[be5750da26e06623bc49653cefaf97c7]
entity p--><g id="elem_p"><ellipse cx="84" cy="874.5" fill="#F1F1F1" rx="8" ry="8" style="stroke:#181818;stroke-width:0.5;"/><path d="M84,882.5 L84,909.5 M71,890.5 L97,890.5 M84,909.5 L71,924.5 M84,909.5 L97,924.5 " fill="none" style="stroke:#181818;stroke-width:0.5;"/><text fill="#000000" font-family="sans-serif" font-size="14" lengthAdjust="spacing" textLength="68" x="50" y="938.9951">Professor</text></g><!--MD5=[f83ae91a690dfc657e1c5fbbd818f13d]
entity a--><g id="elem_a"><ellipse cx="84" cy="985.5" fill="#F1F1F1" rx="8" ry="8" style="stroke:#181818;stroke-width:0.5;"/><path d="M84,993.5 L84,1020.5 M71,1001.5 L97,1001.5 M84,1020.5 L71,1035.5 M84,1020.5 L97,1035.5 " fill="none" style="stroke:#181818;stroke-width:0.5;"/><text fill="#000000" font-family="sans-serif" font-size="14" lengthAdjust="spacing" textLength="102" x="33" y="1049.9951">Administrador</text></g><!--MD5=[a9c8a8513c0b396cebc32a09146264a5]
entity de--><g id="elem_de"><ellipse cx="84" cy="1096.5" fill="#F1F1F1" rx="8" ry="8" style="stroke:#181818;stroke-width:0.5;"/><path d="M84,1104.5 L84,1131.5 M71,1112.5 L97,1112.5 M84,1131.5 L71,1146.5 M84,1131.5 L97,1146.5 " fill="none" style="stroke:#181818;stroke-width:0.5;"/><text fill="#000000" font-family="sans-serif" font-size="14" lengthAdjust="spacing" textLength="124" x="22" y="1160.9951">DivisãoDeEstágio</text></g><g id="elem_UC1"><ellipse cx="341.5664" cy="859.7722" fill="#F1F1F1" rx="60.0664" ry="14.7722" style="stroke:#181818;stroke-width:0.5;"/><text fill="#000000" font-family="sans-serif" font-size="14" lengthAdjust="spacing" textLength="67" x="305.0664" y="863.5198">Ver Perfil</text></g><g id="elem_UC2"><ellipse cx="341.6626" cy="715.0325" fill="#F1F1F1" rx="98.1626" ry="22.0325" style="stroke:#181818;stroke-width:0.5;"/><text fill="#000000" font-family="sans-serif" font-size="14" lengthAdjust="spacing" textLength="160" x="261.6626" y="717.8792">Abrir Caixa de Entrada</text></g><g id="elem_UC3"><ellipse cx="341.5203" cy="368.8041" fill="#F1F1F1" rx="99.5203" ry="22.3041" style="stroke:#181818;stroke-width:0.5;"/><text fill="#000000" font-family="sans-serif" font-size="14" lengthAdjust="spacing" textLength="163" x="260.0203" y="371.6507">Ver Modelo de Relatóo</text></g><g id="elem_UC4"><ellipse cx="341.4811" cy="451.0962" fill="#F1F1F1" rx="110.9811" ry="24.5962" style="stroke:#181818;stroke-width:0.5;"/><text fill="#000000" font-family="sans-serif" font-size="14" lengthAdjust="spacing" textLength="188" x="247.4811" y="453.9429">Iniciar cadastro de estágio</text></g><g id="elem_UC5"><ellipse cx="341.2717" cy="537.0543" fill="#F1F1F1" rx="120.7717" ry="26.5543" style="stroke:#181818;stroke-width:0.5;"/><text fill="#000000" font-family="sans-serif" font-size="14" lengthAdjust="spacing" textLength="209" x="236.7717" y="539.901">Iniciar castrastro de empresa</text></g><g id="elem_UC6"><ellipse cx="341.6147" cy="201.1229" fill="#F1F1F1" rx="98.6147" ry="22.1229" style="stroke:#181818;stroke-width:0.5;"/><text fill="#000000" font-family="sans-serif" font-size="14" lengthAdjust="spacing" textLength="161" x="261.1147" y="203.9696">Ver Perfil de Professor</text></g><g id="elem_UC7"><ellipse cx="341.4233" cy="627.9847" fill="#F1F1F1" rx="135.4233" ry="29.4847" style="stroke:#181818;stroke-width:0.5;"/><text fill="#000000" font-family="sans-serif" font-size="14" lengthAdjust="spacing" textLength="240" x="221.4233" y="630.8313">Acompanhar entrega de relatório</text></g><g id="elem_UC8"><ellipse cx="341.3735" cy="790.7747" fill="#F1F1F1" rx="79.3735" ry="18.2747" style="stroke:#181818;stroke-width:0.5;"/><text fill="#000000" font-family="sans-serif" font-size="14" lengthAdjust="spacing" textLength="117" x="280.9676" y="794.2248">Assinar relatório</text></g><g id="elem_UC9"><ellipse cx="341.2717" cy="285.0543" fill="#F1F1F1" rx="120.7717" ry="26.5543" style="stroke:#181818;stroke-width:0.5;"/><text fill="#000000" font-family="sans-serif" font-size="14" lengthAdjust="spacing" textLength="209" x="236.7717" y="287.901">Iniciar castrastro de empresa</text></g><g id="elem_UC10"><ellipse cx="341.3631" cy="1239.8726" fill="#F1F1F1" rx="127.3631" ry="27.8726" style="stroke:#181818;stroke-width:0.5;"/><text fill="#000000" font-family="sans-serif" font-size="14" lengthAdjust="spacing" textLength="223" x="229.8631" y="1242.7193">Aprovar castrastro de empresa</text></g><g id="elem_UC11"><ellipse cx="341.3472" cy="1015.2215" fill="#F1F1F1" rx="53.3472" ry="14.7215" style="stroke:#181818;stroke-width:0.5;"/><text fill="#000000" font-family="sans-serif" font-size="14" lengthAdjust="spacing" textLength="58" x="309.3472" y="1018.969">Ver FAQ</text></g><g id="elem_UC12"><ellipse cx="341.4652" cy="1159.193" fill="#F1F1F1" rx="78.9652" ry="18.193" style="stroke:#181818;stroke-width:0.5;"/><text fill="#000000" font-family="sans-serif" font-size="14" lengthAdjust="spacing" textLength="116" x="281.4" y="1162.6886">Registrar duvida</text></g><g id="elem_UC13"><ellipse cx="341.5326" cy="937.8065" fill="#F1F1F1" rx="124.5326" ry="27.3065" style="stroke:#181818;stroke-width:0.5;"/><text fill="#000000" font-family="sans-serif" font-size="14" lengthAdjust="spacing" textLength="217" x="233.0326" y="940.6532">Assinar aprovação de relatório</text></g><g id="elem_UC14"><ellipse cx="341.6728" cy="1084.8346" fill="#F1F1F1" rx="89.6728" ry="20.3346" style="stroke:#181818;stroke-width:0.5;"/><text fill="#000000" font-family="sans-serif" font-size="14" lengthAdjust="spacing" textLength="141" x="271.1728" y="1087.6812">Cadastrar Professor</text></g><g id="elem_UC15"><ellipse cx="341.6608" cy="1413.0322" fill="#F1F1F1" rx="103.1608" ry="23.0322" style="stroke:#181818;stroke-width:0.5;"/><text fill="#000000" font-family="sans-serif" font-size="14" lengthAdjust="spacing" textLength="171" x="256.1608" y="1415.8788">Atualizar Perfil de Aluno</text></g><g id="elem_UC16"><ellipse cx="341.5937" cy="1329.1187" fill="#F1F1F1" rx="116.0937" ry="25.6187" style="stroke:#181818;stroke-width:0.5;"/><text fill="#000000" font-family="sans-serif" font-size="14" lengthAdjust="spacing" textLength="199" x="242.0937" y="1331.9654">Atualizar Perfil de Professor</text></g><g id="elem_UC17"><ellipse cx="341.613" cy="57.1226" fill="#F1F1F1" rx="66.113" ry="15.6226" style="stroke:#181818;stroke-width:0.5;"/><text fill="#000000" font-family="sans-serif" font-size="14" lengthAdjust="spacing" textLength="82" x="297.613" y="60.8702">Fazer Login</text></g><g id="elem_UC18"><ellipse cx="341.2532" cy="125.9506" fill="#F1F1F1" rx="77.7532" ry="17.9506" style="stroke:#181818;stroke-width:0.5;"/><text fill="#000000" font-family="sans-serif" font-size="14" lengthAdjust="spacing" textLength="113" x="282.1994" y="129.5809">Cadastrar Aluno</text></g><!--MD5=[aff7a386040c94dc9e87b48fe02256dd]
entity uv--><g id="elem_uv"><ellipse cx="84" cy="62.5" fill="#F1F1F1" rx="8" ry="8" style="stroke:#181818;stroke-width:0.5;"/><path d="M84,70.5 L84,97.5 M71,78.5 L97,78.5 M84,97.5 L71,112.5 M84,97.5 L97,112.5 " fill="none" style="stroke:#181818;stroke-width:0.5;"/><text fill="#000000" font-family="sans-serif" font-size="14" lengthAdjust="spacing" textLength="116" x="26" y="126.9951">UsuárioVisitante</text></g><!--MD5=[f4701ba98286dcf4f3a9e9823e6890d9]
entity ul--><g id="elem_ul"><ellipse cx="84" cy="553.5" fill="#F1F1F1" rx="8" ry="8" style="stroke:#181818;stroke-width:0.5;"/><path d="M84,561.5 L84,588.5 M71,569.5 L97,569.5 M84,588.5 L71,603.5 M84,588.5 L97,603.5 " fill="none" style="stroke:#181818;stroke-width:0.5;"/><text fill="#000000" font-family="sans-serif" font-size="14" lengthAdjust="spacing" textLength="103" x="32.5" y="617.9951">UsuárioLogado</text></g><!--MD5=[0e76ed6b94424bedae5863dbffce69f9]
link uv to UC17--><g id="link_uv_UC17"><path d="M142.021,84.19 C182.724,78.61 237.414,71.12 279.079,65.41 " fill="none" id="uv-to-UC17" style="stroke:#181818;stroke-width:1.0;"/><polygon fill="#181818" points="284.093,64.73,274.6337,61.9876,279.1392,65.4081,275.7186,69.9136,284.093,64.73" style="stroke:#181818;stroke-width:1.0;"/></g><!--MD5=[89868b7e1c45a51905060ae0ea238962]
link uv to UC18--><g id="link_uv_UC18"><path d="M142.021,99.59 C179.18,104.53 227.998,111.03 267.918,116.34 " fill="none" id="uv-to-UC18" style="stroke:#181818;stroke-width:1.0;"/><polygon fill="#181818" points="273.24,117.05,264.8471,111.8964,268.2838,116.3897,263.7906,119.8263,273.24,117.05" style="stroke:#181818;stroke-width:1.0;"/></g><!--MD5=[b07a09764bfaac845fc5fbce44887562]
link ul to UC1--><g id="link_ul_UC1"><path d="M89.0266,621.242 C96.87,675.578 119.355,774.359 182,827 C208.043,848.884 244.887,857.452 276.498,860.403 " fill="none" id="ul-to-UC1" style="stroke:#181818;stroke-width:1.0;"/><polygon fill="#181818" points="281.524,860.83,272.8945,856.0833,276.5419,860.4072,272.218,864.0546,281.524,860.83" style="stroke:#181818;stroke-width:1.0;"/></g><!--MD5=[12c887483f5d1fad0ccd6e96ee769985]
link ul to UC2--><g id="link_ul_UC2"><path d="M116.516,621.011 C133.999,639.814 157.192,661.348 182,675 C204.052,687.135 229.849,695.663 254.148,701.627 " fill="none" id="ul-to-UC2" style="stroke:#181818;stroke-width:1.0;"/><polygon fill="#181818" points="259.309,702.861,251.4861,696.8775,254.4461,701.6981,249.6255,704.6582,259.309,702.861" style="stroke:#181818;stroke-width:1.0;"/></g><!--MD5=[36bd62ec965bd49cfd8afe35595024cc]
link ul to UC3--><g id="link_ul_UC3"><path d="M96.272,544.752 C110.019,504.858 137.146,443.43 182,409 C200.417,394.86 223.251,385.67 245.797,379.72 " fill="none" id="ul-to-UC3" style="stroke:#181818;stroke-width:1.0;"/><polygon fill="#181818" points="250.905,378.42,241.1973,376.7586,246.0589,379.6508,243.1666,384.5124,250.905,378.42" style="stroke:#181818;stroke-width:1.0;"/></g><!--MD5=[0c48d1eb4d9c2da9396c84ac1e5367cd]
link ul to UC4--><g id="link_ul_UC4"><path d="M118.034,544.594 C135.412,526.565 158.055,506.19 182,493 C202.283,481.827 225.68,473.513 248.164,467.37 " fill="none" id="ul-to-UC4" style="stroke:#181818;stroke-width:1.0;"/><polygon fill="#181818" points="253.248,466.01,243.521,464.4656,248.417,467.2991,245.5836,472.1952,253.248,466.01" style="stroke:#181818;stroke-width:1.0;"/></g><!--MD5=[7b5595b01a7a250e20b5a5c8a9e6b943]
link ul to UC5--><g id="link_ul_UC5"><path d="M135.784,573.857 C166.161,568.388 205.795,561.252 242.089,554.718 " fill="none" id="ul-to-UC5" style="stroke:#181818;stroke-width:1.0;"/><polygon fill="#181818" points="247.418,553.758,237.8518,551.4154,242.4971,554.6436,239.2688,559.2889,247.418,553.758" style="stroke:#181818;stroke-width:1.0;"/></g><!--MD5=[df1f213f0dce3335ee6941e179ee966a]
link ul to UC6--><g id="link_ul_UC6"><path d="M84.2211,544.767 C84.9677,474.261 97.108,323.45 182,241 C198.466,225.01 220.35,215.13 242.583,209.09 " fill="none" id="ul-to-UC6" style="stroke:#181818;stroke-width:1.0;"/><polygon fill="#181818" points="247.632,207.79,237.9168,206.1732,242.7916,209.0431,239.9217,213.9179,247.632,207.79" style="stroke:#181818;stroke-width:1.0;"/></g><!--MD5=[0d96b4d152a802977279db7323afa340]
link ul to UC7--><g id="link_ul_UC7"><path d="M135.784,591.944 C162.929,596.725 197.464,602.808 230.404,608.609 " fill="none" id="ul-to-UC7" style="stroke:#181818;stroke-width:1.0;"/><polygon fill="#181818" points="235.675,609.538,227.5051,604.0378,230.7508,608.6709,226.1177,611.9165,235.675,609.538" style="stroke:#181818;stroke-width:1.0;"/></g><!--MD5=[af7855580a66ff264c524076b447f995]
link ul to UC9--><g id="link_ul_UC9"><path d="M88.8924,544.718 C96.611,489.1 118.989,386.35 182,329 C196.189,316.09 213.847,306.92 232.176,300.42 " fill="none" id="ul-to-UC9" style="stroke:#181818;stroke-width:1.0;"/><polygon fill="#181818" points="237.361,298.66,227.5531,297.7626,232.6259,300.2659,230.1226,305.3387,237.361,298.66" style="stroke:#181818;stroke-width:1.0;"/></g><!--MD5=[f727f271d07915bdd422d9cd3b89c7de]
link ul to UC11--><g id="link_ul_UC11"><path d="M100.087,621.212 C119.625,672.423 153.163,766.55 170,850 C175.869,879.089 162.193,960.902 182,983 C207.359,1011.293 250.207,1018.614 284.963,1019.23 " fill="none" id="ul-to-UC11" style="stroke:#181818;stroke-width:1.0;"/><polygon fill="#181818" points="290.029,1019.274,281.0636,1015.197,285.0292,1019.2311,280.995,1023.1967,290.029,1019.274" style="stroke:#181818;stroke-width:1.0;"/></g><!--MD5=[544e6c20ad8806859aeb6e3ba20a2474]
link ul to UC12--><g id="link_ul_UC12"><path d="M100.665,621.102 C120.843,672.192 155.088,766.185 170,850 C175.318,879.893 162.54,1099.693 182,1123 C200.388,1145.023 229.171,1155.231 257.191,1159.535 " fill="none" id="ul-to-UC12" style="stroke:#181818;stroke-width:1.0;"/><polygon fill="#181818" points="262.412,1160.272,254.0591,1155.0539,257.461,1159.5735,252.9415,1162.9755,262.412,1160.272" style="stroke:#181818;stroke-width:1.0;"/></g><!--MD5=[b2c7937cb047ac6da07e9dbd1ae25c07]
link p to UC1--><g id="link_p_UC1"><path d="M118.14,898.293 C160.827,890.942 235.576,878.069 286.518,869.296 " fill="none" id="p-to-UC1" style="stroke:#181818;stroke-width:1.0;"/><polygon fill="#181818" points="291.68,868.407,282.1318,865.9921,286.7525,869.2554,283.4892,873.8761,291.68,868.407" style="stroke:#181818;stroke-width:1.0;"/></g><!--MD5=[e10dc13d974f720c4bf3c91220f91f22]
link p to UC2--><g id="link_p_UC2"><path d="M100.205,865.712 C115.726,831.571 143.074,782.817 182,755 C201.509,741.059 225.405,731.963 248.668,726.032 " fill="none" id="p-to-UC2" style="stroke:#181818;stroke-width:1.0;"/><polygon fill="#181818" points="253.621,724.814,243.9261,723.0793,248.7657,726.0082,245.8368,730.8478,253.621,724.814" style="stroke:#181818;stroke-width:1.0;"/></g><!--MD5=[7d925fd1b29bb43edd295ccebb14689a]
link p to UC7--><g id="link_p_UC7"><path d="M90.896,865.72 C100.736,814.882 125.333,725.63 182,675 C195.303,663.114 211.49,654.229 228.376,647.588 " fill="none" id="p-to-UC7" style="stroke:#181818;stroke-width:1.0;"/><polygon fill="#181818" points="233.156,645.774,223.3223,645.2273,228.4813,647.5479,226.1606,652.7068,233.156,645.774" style="stroke:#181818;stroke-width:1.0;"/></g><!--MD5=[1120fa405fef2b6343c972323bdb0972]
link p to UC8--><g id="link_p_UC8"><path d="M118.343,871.341 C135.968,855.773 158.735,838.156 182,827 C208.109,814.48 238.753,806.212 266.101,800.8 " fill="none" id="p-to-UC8" style="stroke:#181818;stroke-width:1.0;"/><polygon fill="#181818" points="271.168,799.823,261.5732,797.6006,266.2586,800.7703,263.0889,805.4557,271.168,799.823" style="stroke:#181818;stroke-width:1.0;"/></g><!--MD5=[183269eafd884b884650c86c12852cf0]
link de to UC1--><g id="link_de_UC1"><path d="M146.241,1096.604 C155.617,1089.496 164.116,1080.998 170,1071 C190.107,1036.832 155.965,922.899 182,893 C205.478,866.038 244.753,857.722 278.333,856.179 " fill="none" id="de-to-UC1" style="stroke:#181818;stroke-width:1.0;"/><polygon fill="#181818" points="283.67,855.988,274.5329,852.312,278.6732,856.1666,274.8186,860.3069,283.67,855.988" style="stroke:#181818;stroke-width:1.0;"/></g><!--MD5=[5686aa466d9954036eabf120109f28dc]
link de to UC10--><g id="link_de_UC10"><path d="M131.823,1164.184 C147.133,1175.304 164.673,1186.684 182,1195 C201.9,1204.55 224.203,1212.432 245.654,1218.783 " fill="none" id="de-to-UC10" style="stroke:#181818;stroke-width:1.0;"/><polygon fill="#181818" points="250.505,1220.198,242.985,1213.838,245.705,1218.798,240.745,1221.518,250.505,1220.198" style="stroke:#181818;stroke-width:1.0;"/></g><!--MD5=[0357c5313cf0ba92668a8a2fab76ff78]
link de to UC11--><g id="link_de_UC11"><path d="M146.25,1092.145 C154.841,1085.814 163.084,1078.727 170,1071 C177.954,1062.114 172.529,1054.247 182,1047 C210.568,1025.138 250.251,1017.145 282.762,1014.614 " fill="none" id="de-to-UC11" style="stroke:#181818;stroke-width:1.0;"/><polygon fill="#181818" points="287.916,1014.253,278.6591,1010.8901,282.9282,1014.6015,279.2167,1018.8706,287.916,1014.253" style="stroke:#181818;stroke-width:1.0;"/></g><!--MD5=[56849e07ce531db33c8e7e751ff04787]
link de to UC12--><g id="link_de_UC12"><path d="M146.199,1133.904 C182.51,1138.594 228.773,1144.57 267.047,1149.513 " fill="none" id="de-to-UC12" style="stroke:#181818;stroke-width:1.0;"/><polygon fill="#181818" points="272.153,1150.172,263.7391,1145.0528,267.1941,1149.532,262.715,1152.987,272.153,1150.172" style="stroke:#181818;stroke-width:1.0;"/></g><!--MD5=[9cd602b81bc488e4b04442b67f9eecac]
link de to UC15--><g id="link_de_UC15"><path d="M89.2728,1164.148 C97.42,1218.427 120.274,1317.405 182,1372 C198.725,1386.7931 220.112,1396.368 241.723,1402.5343 " fill="none" id="de-to-UC15" style="stroke:#181818;stroke-width:1.0;"/><polygon fill="#181818" points="246.628,1403.8756,239.0015,1397.6438,241.805,1402.557,236.8917,1405.3606,246.628,1403.8756" style="stroke:#181818;stroke-width:1.0;"/></g><!--MD5=[2bc6e1cb5fd08da4a9d1ad4ff523fbe7]
link de to UC16--><g id="link_de_UC16"><path d="M98.453,1164.125 C113.313,1200.736 140.738,1254.934 182,1286 C198.659,1298.543 218.736,1307.428 238.918,1313.723 " fill="none" id="de-to-UC16" style="stroke:#181818;stroke-width:1.0;"/><polygon fill="#181818" points="243.773,1315.187,236.312,1308.7579,238.9861,1313.7428,234.0012,1316.4169,243.773,1315.187" style="stroke:#181818;stroke-width:1.0;"/></g><!--MD5=[df7cd49fcedf1d73d984530edbb0d184]
link a to UC1--><g id="link_a_UC1"><path d="M135.264,991.95 C148.425,983.642 161.338,973.026 170,960 C186.752,934.81 160.911,914.689 182,893 C206.365,867.942 244.456,859.441 277.19,857.325 " fill="none" id="a-to-UC1" style="stroke:#181818;stroke-width:1.0;"/><polygon fill="#181818" points="282.395,857.038,273.1891,853.5378,277.4025,857.3123,273.628,861.5258,282.395,857.038" style="stroke:#181818;stroke-width:1.0;"/></g><!--MD5=[25b417a96d9bfabd8a6cff401c5eb3e6]
link a to UC10--><g id="link_a_UC10"><path d="M135.07,1037.637 C148.56,1046.169 161.7,1057.227 170,1071 C184.289,1094.711 164.265,1173.743 182,1195 C193.127,1208.336 207.892,1217.878 223.944,1224.675 " fill="none" id="a-to-UC10" style="stroke:#181818;stroke-width:1.0;"/><polygon fill="#181818" points="228.964,1226.697,222.1105,1219.6238,224.3262,1224.8287,219.1213,1227.0444,228.964,1226.697" style="stroke:#181818;stroke-width:1.0;"/></g><!--MD5=[a074ecc9c0856559a9d972dac2aab8fa]
link a to UC11--><g id="link_a_UC11"><path d="M135.174,1015 C177.574,1015 238.324,1015 282.743,1015 " fill="none" id="a-to-UC11" style="stroke:#181818;stroke-width:1.0;"/><polygon fill="#181818" points="287.804,1015,278.804,1011,282.804,1015,278.804,1019,287.804,1015" style="stroke:#181818;stroke-width:1.0;"/></g><!--MD5=[a41853ea7dd5510175092af7256292f9]
link a to UC12--><g id="link_a_UC12"><path d="M135.304,1039.201 C148.305,1047.624 161.123,1058.232 170,1071 C183.539,1090.474 165.2,1106.258 182,1123 C201.852,1142.783 230.156,1152.634 257.367,1157.283 " fill="none" id="a-to-UC12" style="stroke:#181818;stroke-width:1.0;"/><polygon fill="#181818" points="262.433,1158.091,254.1765,1152.7216,257.4956,1157.3024,252.9148,1160.6214,262.433,1158.091" style="stroke:#181818;stroke-width:1.0;"/></g><!--MD5=[b5f79638d220dd8b3e2457da3851d219]
link a to UC13--><g id="link_a_UC13"><path d="M135.217,997.988 C150.224,993.025 166.742,987.68 182,983 C206.484,975.489 233.229,967.728 257.659,960.81 " fill="none" id="a-to-UC13" style="stroke:#181818;stroke-width:1.0;"/><polygon fill="#181818" points="262.512,959.438,252.7633,958.0368,257.7005,960.798,254.9393,965.7352,262.512,959.438" style="stroke:#181818;stroke-width:1.0;"/></g><!--MD5=[ea802c2299f3296f528866234d3b0bcd]
link a to UC15--><g id="link_a_UC15"><path d="M135.115,1037.071 C148.78,1045.629 162.006,1056.843 170,1071 C186.458,1100.145 160.986,1345.948 182,1372 C195.712,1388.9994 215.472,1399.4877 236.415,1405.8421 " fill="none" id="a-to-UC15" style="stroke:#181818;stroke-width:1.0;"/><polygon fill="#181818" points="241.472,1407.2919,233.9237,1400.9655,236.6658,1405.9134,231.718,1408.6555,241.472,1407.2919" style="stroke:#181818;stroke-width:1.0;"/></g><!--MD5=[0a3c6ae6aadffe898c4b98c098565f25]
link a to UC16--><g id="link_a_UC16"><path d="M135.422,1037.43 C148.923,1045.955 161.982,1057.06 170,1071 C193.86,1112.479 151.88,1248.816 182,1286 C194.057,1300.885 210.702,1310.919 228.696,1317.622 " fill="none" id="a-to-UC16" style="stroke:#181818;stroke-width:1.0;"/><polygon fill="#181818" points="233.805,1319.426,226.6517,1312.6562,229.0906,1317.7603,223.9865,1320.1992,233.805,1319.426" style="stroke:#181818;stroke-width:1.0;"/></g><!--MD5=[03977d9821a406306a2483096682e185]
@startuml
left to right direction
actor UsuárioVisitante as uv
actor UsuárioLogado as ul
package Professional {
  actor Professor as p
  actor Administrador as a
  actor DivisãoDeEstágio as de
}
package AppDivisãoDeEstágio {
  usecase "Ver Perfil" as UC1
  usecase "Abrir Caixa de Entrada" as UC2
  usecase "Ver Modelo de Relatóo" as UC3
  usecase "Iniciar cadastro de estágio" as UC4
  usecase "Iniciar castrastro de empresa" as UC5
  usecase "Ver Perfil de Professor" as UC6
  usecase "Acompanhar entrega de relatório" as UC7
  usecase "Assinar relatório" as UC8
  usecase "Iniciar castrastro de empresa" as UC9
  usecase "Aprovar castrastro de empresa" as UC10
  usecase "Ver FAQ" as UC11
  usecase "Registrar duvida" as UC12
  usecase "Responder dúvida" as UC13
  usecase "Assinar aprovação de relatório" as UC13
  usecase "Cadastrar Professor" as UC14
  usecase "Atualizar Perfil de Aluno" as UC15
  usecase "Atualizar Perfil de Professor" as UC16
  usecase "Fazer Login" as UC17
  usecase "Cadastrar Aluno" as UC18
}

uv - -> UC17
uv - -> UC18

ul - -> UC1
ul - -> UC2
ul - -> UC3
ul - -> UC4
ul - -> UC5
ul - -> UC6
ul - -> UC7
ul - -> UC9
ul - -> UC11
ul - -> UC12

p - -> UC1
p - -> UC2
p - -> UC7
p - -> UC8

de - -> UC1
de - -> UC10
de - -> UC11
de - -> UC12
de - -> UC15
de - -> UC16

a - -> UC1
a - -> UC10
a - -> UC11
a - -> UC12
a - -> UC13
a - -> UC15
a - -> UC16
@enduml

PlantUML version 1.2022.6beta5(Unknown compile time)
(GPL source distribution)
Java Runtime: Java(TM) SE Runtime Environment
JVM: Java HotSpot(TM) 64-Bit Server VM
Default Encoding: UTF-8
Language: en
Country: US
--></g></svg>